<?xml version="1.0" encoding="utf-8"?>
<!-- Generator: Adobe Illustrator 25.0.1, SVG Export Plug-In . SVG Version: 6.00 Build 0)  -->
<svg version="1.1" id="Layer_1" xmlns="http://www.w3.org/2000/svg" xmlns:xlink="http://www.w3.org/1999/xlink" x="0px" y="0px"
	 viewBox="0 0 17.5 17.5" style="enable-background:new 0 0 17.5 17.5;" xml:space="preserve">
<style type="text/css">
	.st0{fill:#FEC7AF;}
	.st1{fill:#EB5602;}
</style>
<circle class="st0" cx="8.8" cy="8.8" r="8.8"/>
<g>
	<path class="st1" d="M7.4,10.6v2.3c0,0.1,0,0.2-0.1,0.2c0,0-0.1,0-0.2,0H5.9c-0.1,0-0.2,0-0.2,0c0,0-0.1-0.1-0.1-0.2V5.6
		c0-0.2,0-0.4,0-0.5c0-0.1,0.1-0.3,0.2-0.4C5.9,4.6,6,4.5,6.2,4.5c0.2-0.1,0.4-0.1,0.6-0.1h2c1,0,1.8,0.3,2.3,0.8
		c0.5,0.5,0.8,1.3,0.8,2.3c0,1-0.3,1.8-0.8,2.4c-0.5,0.6-1.3,0.8-2.3,0.8H7.4z M7.4,8.9h1.4c0.4,0,0.8-0.1,1-0.4
		c0.2-0.3,0.3-0.6,0.3-1.1c0-0.5-0.1-0.8-0.3-1c-0.2-0.2-0.6-0.3-1-0.3H7.9c-0.2,0-0.3,0-0.4,0.1C7.4,6.2,7.4,6.4,7.4,6.6V8.9z"/>
</g>
</svg>
