<?xml version="1.0" encoding="utf-8"?>
<!-- Generator: Adobe Illustrator 25.0.1, SVG Export Plug-In . SVG Version: 6.00 Build 0)  -->
<svg version="1.1" id="Layer_1" xmlns="http://www.w3.org/2000/svg" xmlns:xlink="http://www.w3.org/1999/xlink" x="0px" y="0px"
	 viewBox="0 0 17.6 17.8" style="enable-background:new 0 0 17.6 17.8;" xml:space="preserve">
<style type="text/css">
	.st0{fill:#FEC7AF;}
	.st1{fill:#EB5602;}
</style>
<circle class="st0" cx="8.8" cy="9" r="8.8"/>
<g>
	<path class="st1" d="M9.3,5.2c0.1,0,0.2,0,0.3,0.1c0.1,0,0.1,0.1,0.1,0.2l0.6,3.2h1.1L12,5.5c0-0.1,0-0.2,0.1-0.2c0,0,0.1,0,0.2,0
		h0.9c0.1,0,0.2,0,0.2,0.1s0,0.1,0,0.2l-0.6,3.1h0.8c0.1,0,0.1,0,0.2,0c0,0,0.1,0.1,0.1,0.2V10c0,0.1,0,0.2-0.1,0.2c0,0-0.1,0-0.2,0
		h-1.1l-0.4,2.2c0,0.1-0.1,0.2-0.1,0.3c-0.1,0-0.2,0.1-0.3,0.1H10c-0.2,0-0.3,0-0.3-0.1c-0.1,0-0.1-0.1-0.1-0.3l-0.3-2.2h-1
		l-0.4,2.2c0,0.1-0.1,0.2-0.1,0.3c-0.1,0-0.2,0.1-0.3,0.1H5.8c-0.2,0-0.3,0-0.3-0.1c-0.1,0-0.1-0.1-0.1-0.3L5,10.2H3.9
		c-0.1,0-0.1,0-0.2,0c0,0-0.1-0.1-0.1-0.2V8.9c0-0.1,0-0.1,0.1-0.2c0,0,0.1,0,0.2,0h0.8L4.2,5.5c0-0.1,0-0.2,0-0.2s0.1-0.1,0.2-0.1
		h0.9c0.1,0,0.2,0,0.2,0s0.1,0.1,0.1,0.2l0.6,3.2h1.1l0.6-3.2C7.9,5.3,8,5.2,8,5.2c0.1,0,0.1-0.1,0.3-0.1L9.3,5.2L9.3,5.2z
		 M6.8,11.2l0.2-1H6.5l0.2,1H6.8z M8.6,8.7H9L8.8,7.5L8.6,8.7z M10.9,11.2l0.2-1h-0.5l0.2,1H10.9z"/>
</g>
</svg>
